PathFileType	4	(X/Y/Z)	60_1_2_p0_0-316_filt_butterworth.trc
DataRate	CameraRate	NumFrames	NumMarkers	Units	OrigDataRate	OrigDataStartFrame	OrigNumFrames
50.0	50.0	5	27	m	50.0	158	316
Frame#	Time	RHip			RKnee			RAnkle			RBigToe			RSmallToe			RHeel			LHip			LKnee			LAnkle			LBigToe			LSmallToe			LHeel			Neck			Head			Nose			RShoulder			RElbow			RWrist			RThumb			RIndex			RPinky			LShoulder			LElbow			LWrist			LThumb			LIndex			LPinky			
		X1	Y1	Z1	X2	Y2	Z2	X3	Y3	Z3	X4	Y4	Z4	X5	Y5	Z5	X6	Y6	Z6	X7	Y7	Z7	X8	Y8	Z8	X9	Y9	Z9	X10	Y10	Z10	X11	Y11	Z11	X12	Y12	Z12	X13	Y13	Z13	X14	Y14	Z14	X15	Y15	Z15	X16	Y16	Z16	X17	Y17	Z17	X18	Y18	Z18	X19	Y19	Z19	X20	Y20	Z20	X21	Y21	Z21	X22	Y22	Z22	X23	Y23	Z23	X24	Y24	Z24	X25	Y25	Z25	X26	Y26	Z26	X27	Y27	Z27	
158	3.16	0.3521678939873294	0.4448487050678771	-0.19576971966659343	0.33954161620026013	0.6640680511906314	0.230605071355785	0.3226871285057721	0.8049678707090212	0.6031309938083143	0.28455707899716887	0.641897965549017	0.6809908714708645	0.3438256411072397	0.6434049875746614	0.6681480163140616	0.292873578813551	0.9227273885923746	0.657885375904824	0.13204275653271993	0.4478255290417351	-0.20737784475545568	0.12259668250622076	0.6490591668582926	0.22128490013980054	0.11920070997215203	0.793962450982643	0.5989803061816878	0.13060035750795085	0.6179124099789435	0.6611523043846523	0.07091829084924194	0.677895514047599	0.6605120577154611	0.143330246492127	0.8549939906668642	0.6423553452275671	0.26162817028289853	0.27559665982803166	-0.7298391287146937	0.26569980347492905	0.16548323906231452	-0.947046796688371	0.2684027931684052	0.16780014973688104	-0.8074298722642889	0.43163341363755414	0.33897804782579055	-0.658651058823511	0.4638713655938204	0.3759038736229401	-0.3942079412114388	0.45448445667462056	0.3877859544803147	-0.1391230442707513	0.37122282929719697	0.41968907304861414	-0.0010999092519691426	0.3844828890252159	0.44275842329299636	0.031223204670632533	0.44219024370135074	0.41213573824204497	0.021631841772508372	0.0959245039587635	0.34526209523018164	-0.6807744674209077	0.04587639918130953	0.38345720698288177	-0.42014475143091085	0.027718892248986046	0.4113573146749361	-0.1771024361597075	0.06378367060664189	0.4416437960640942	-0.05497037422706412	0.04295132030260491	0.4326923128436187	-0.02694652082294429	0.004108173758797585	0.47877443414611687	-0.04694843986531112
159	3.18	0.352157832454363	0.4448942054127779	-0.19575858778908212	0.33951066720653456	0.6639595949306958	0.23051982114359665	0.3228019227828297	0.8050361489896045	0.6031302758174205	0.28453858899242945	0.6419230151004534	0.6808463484041376	0.3439694297535251	0.6429631179409523	0.6680363527971526	0.29288701881352736	0.9227570124928015	0.6578723907186612	0.1321316627561942	0.44758822365928475	-0.20737123154585374	0.12258841332345576	0.6489975245558974	0.22138225804737394	0.11964082451471675	0.7945128300833176	0.5994933408680018	0.13069103928770892	0.617904552716061	0.6623759943652425	0.07089569903909071	0.6779647099835218	0.6605482562740926	0.14331250782016097	0.8550542829672141	0.6423272917648346	0.26169312145043755	0.2756568329511943	-0.7298825204369588	0.2656770126244919	0.16555249694216312	-0.947215278104339	0.26845760261214424	0.16749714385188372	-0.8073632042470638	0.431643429206664	0.33895925966064683	-0.6585901649044323	0.46283133373379115	0.3766234357780628	-0.3941100542908055	0.454485537770495	0.38779514748688415	-0.13911278427758808	0.3712199722236803	0.41975799479376785	-0.001569620903380318	0.384520259924102	0.44288203284205496	0.0312913497166955	0.4421632572619744	0.4129947035133346	0.02160637440435822	0.09600515538649025	0.3453503457821639	-0.6807839549517204	0.04393202041089073	0.38393045389010516	-0.4202079464362081	0.027874004150556943	0.4110206906715259	-0.17709056914750132	0.0634335904754407	0.4417549262947589	-0.05509480039315674	0.042536289021354375	0.4340579335195056	-0.02633647300614019	0.004113471192739939	0.4786448458393114	-0.046659640325166805
160	3.2	0.3521264109906571	0.4449824510938233	-0.19574180487517107	0.3394847750229601	0.6639233511400173	0.23042925329151515	0.3228434150125115	0.8050776909866422	0.6031187357844381	0.28456203379187056	0.6418383527888336	0.6807288960007477	0.3449526873093205	0.6424423145375681	0.6682504927810051	0.29290730809271653	0.9227943377008903	0.6578461076495185	0.13222215416892663	0.4472521797935153	-0.2074086924153331	0.12256718412498938	0.6489615646258782	0.22149518219019998	0.12065656048850286	0.7951144533253549	0.5994626837246955	0.13079635708058593	0.6179746080113597	0.6641384967476168	0.07086847956924314	0.6780357072310403	0.6605898915086154	0.14325056663623667	0.8548474838094364	0.6423103829517387	0.2616682994173645	0.2757004997651968	-0.729949487896294	0.26563651167112323	0.16562654224214307	-0.9470659236129433	0.26852695802310256	0.16712644294816392	-0.8072772935946393	0.4316054755954136	0.3390852283327507	-0.6585442133332486	0.46082553683532396	0.37620673343731936	-0.3938986994289806	0.4544818388179871	0.3878272854975745	-0.13911423490515992	0.37121783115299795	0.41949571675634106	-0.002453555273938094	0.3845451349797044	0.4429423644229063	0.031290987987583826	0.44253726371747515	0.41293947230158773	0.02123514868118417	0.09573628618682625	0.3452811506099036	-0.6807758784480398	0.04291993783720149	0.38435781657712287	-0.4203759797214792	0.02750500984004139	0.41193350753464963	-0.1770659110945606	0.06356459682745287	0.442078339997689	-0.05505939004938096	0.04122131513693769	0.438503193295897	-0.02607210122730056	0.0041286612341518425	0.4786307027515849	-0.04580688202596127
161	3.22	0.3520918154409866	0.4450726650670427	-0.19571297181069147	0.3395669591783491	0.6642620854448245	0.23072669746560304	0.3228693298852958	0.8051051485221683	0.6031367804981528	0.28464158148691976	0.6417305929898525	0.6806785758485829	0.3461088444301479	0.642171323867301	0.6691442215158996	0.2929298846423149	0.9227847177105523	0.6577905600575593	0.13185490509203665	0.448236576881506	-0.20755262416690007	0.12254845894819755	0.6489401487946	0.22124674882396184	0.12165463618447389	0.79539976636829	0.5987273112562448	0.13084773388276627	0.6181468173552063	0.6653146991227014	0.07085170968402661	0.6780114464807092	0.6605950042165125	0.14319993341736348	0.8544769540736497	0.6423121824444563	0.26162303370105366	0.2757322608502543	-0.7300204263472588	0.2656223964010103	0.16570079905913415	-0.9462226254277145	0.2682348495883263	0.16797479771498766	-0.8075044857095535	0.43155168073737493	0.339252941002697	-0.6585087841572614	0.4590719113601983	0.3759292793361425	-0.3937810502414095	0.45447362381391754	0.38785219115272074	-0.13912191148611505	0.3712112301075212	0.41925285076021424	-0.002853420387357623	0.38453130990174034	0.4429138532851154	0.031214350166692502	0.44329663420826343	0.41116087594010853	0.02027544220573129	0.09469749029812106	0.3448430135806517	-0.6806864181819556	0.0421548822464625	0.38438117352476975	-0.4206074181417917	0.025962059840535567	0.4157073282051288	-0.17708714873403103	0.06368090377227541	0.44246785344523404	-0.054897072125430144	0.03943103232849107	0.4445209900314019	-0.026025457334461898	0.004200216447151642	0.4788640609127972	-0.04520072015835814
162	3.24	0.35207907786455195	0.44513610803205	-0.1956842170655921	0.33977275101842985	0.6652795756574617	0.23186662978650227	0.32287098861289837	0.8051264977091923	0.603148102573484	0.28473899486640175	0.6416875201584132	0.6806950846791878	0.3472785953865948	0.6420747092678589	0.6707029857447964	0.2929491762338699	0.9227554164479661	0.6577063097213177	0.1305101924608384	0.45216409722971024	-0.20775885805445124	0.12254675172867402	0.6488662386748795	0.2202123475674408	0.12205448033837549	0.7947910727722427	0.5969407551929269	0.13087169661726789	0.6182446375349306	0.6655390384448989	0.0708564254639303	0.67788889013175	0.6605347918280199	0.1433934622116878	0.8551524095440113	0.6422992176470409	0.2615957050920858	0.27574932078478337	-0.730072333555027	0.2657005667310245	0.1657954159586989	-0.9449815697551186	0.2671391149464702	0.1714525932493403	-0.8084293603511197	0.431516691872571	0.33942101675169045	-0.6584791497765321	0.4584578348083729	0.3755414016967733	-0.39403579122431726	0.45446103653766523	0.387859691592872	-0.13913199846616606	0.37121526256556	0.4191822131795653	-0.002840686245250141	0.384472770002556	0.44285048372597846	0.03110069131633316	0.4440475387843146	0.40697215054916347	0.018957254207373167	0.09320731286795012	0.34416914436770085	-0.6805207797395978	0.040855780690302594	0.3840242798214938	-0.4206207707913524	0.023812102935348686	0.4210466285165197	-0.17720694543728693	0.06369787321196531	0.4426840163431995	-0.05508619386799356	0.0381301653043201	0.44879934226561685	-0.026371363249076255	0.004386673206740006	0.4793125999898973	-0.04553450104210432
